HIERARCHY
ROOT Hips
{
  OFFSET -4.35178 90.3298 111.633
  CHANNELS 6 Xposition Yposition Zposition Zrotation Xrotation Yrotation
  JOINT LeftUpLeg
  {
    OFFSET 0.103456 1.85784 10.5485
    CHANNELS 6 Xposition Yposition Zposition Zrotation Xrotation Yrotation
    JOINT LeftLeg
    {
      OFFSET 43.5 -4.2e-05 0
      CHANNELS 6 Xposition Yposition Zposition Zrotation Xrotation Yrotation
      JOINT LeftFoot
      {
        OFFSET 42.3722 1.9e-05 0
        CHANNELS 6 Xposition Yposition Zposition Zrotation Xrotation Yrotation
        JOINT LeftToe
        {
          OFFSET 17.3 0 0
          CHANNELS 6 Xposition Yposition Zposition Zrotation Xrotation Yrotation
          End Site
          {
            OFFSET 0 0 0
          }
        }
      }
    }
  }
  JOINT RightUpLeg
  {
    OFFSET 0.103456 1.85782 -10.5485
    CHANNELS 6 Xposition Yposition Zposition Zrotation Xrotation Yrotation
    JOINT RightLeg
    {
      OFFSET 43.5 -2.7e-05 0
      CHANNELS 6 Xposition Yposition Zposition Zrotation Xrotation Yrotation
      JOINT RightFoot
      {
        OFFSET 42.3723 0 0
        CHANNELS 6 Xposition Yposition Zposition Zrotation Xrotation Yrotation
        JOINT RightToe
        {
          OFFSET 17.3 0 1.7e-05
          CHANNELS 6 Xposition Yposition Zposition Zrotation Xrotation Yrotation
          End Site
          {
            OFFSET 0 0 0
          }
        }
      }
    }
  }
  JOINT Spine
  {
    OFFSET 6.90197 -2.60373 0
    CHANNELS 6 Xposition Yposition Zposition Zrotation Xrotation Yrotation
    JOINT Spine1
    {
      OFFSET 12.5881 0 0
      CHANNELS 6 Xposition Yposition Zposition Zrotation Xrotation Yrotation
      JOINT Spine2
      {
        OFFSET 12.3432 -1.8e-05 0
        CHANNELS 6 Xposition Yposition Zposition Zrotation Xrotation Yrotation
        JOINT Neck
        {
          OFFSET 25.8329 2.3e-05 0
          CHANNELS 6 Xposition Yposition Zposition Zrotation Xrotation Yrotation
          JOINT Head
          {
            OFFSET 11.7666 0 0
            CHANNELS 6 Xposition Yposition Zposition Zrotation Xrotation Yrotation
            End Site
            {
              OFFSET 0 0 0
            }
          }
        }
        JOINT LeftShoulder
        {
          OFFSET 19.7459 -1.48035 6.0001
          CHANNELS 6 Xposition Yposition Zposition Zrotation Xrotation Yrotation
          JOINT LeftArm
          {
            OFFSET 11.2841 1.8e-05 -2e-05
            CHANNELS 6 Xposition Yposition Zposition Zrotation Xrotation Yrotation
            JOINT LeftForeArm
            {
              OFFSET 33 -1.3e-05 1.9e-05
              CHANNELS 6 Xposition Yposition Zposition Zrotation Xrotation Yrotation
              JOINT LeftHand
              {
                OFFSET 25.2 3.2e-05 1.1e-05
                CHANNELS 6 Xposition Yposition Zposition Zrotation Xrotation Yrotation
                End Site
                {
                  OFFSET 0 0 0
                }
              }
            }
          }
        }
        JOINT RightShoulder
        {
          OFFSET 19.7461 -1.48036 -6.00008
          CHANNELS 6 Xposition Yposition Zposition Zrotation Xrotation Yrotation
          JOINT RightArm
          {
            OFFSET 11.2841 0 0
            CHANNELS 6 Xposition Yposition Zposition Zrotation Xrotation Yrotation
            JOINT RightForeArm
            {
              OFFSET 33.0001 1.6e-05 0
              CHANNELS 6 Xposition Yposition Zposition Zrotation Xrotation Yrotation
              JOINT RightHand
              {
                OFFSET 25.1998 0.000123 0.000432
                CHANNELS 6 Xposition Yposition Zposition Zrotation Xrotation Yrotation
                End Site
                {
                  OFFSET 0 0 0
                }
              }
            }
          }
        }
      }
    }
  }
}
MOTION
Frames:	4
Frame Time:	0.0333333
59.5756 89.1364 -125.626 86.6173 -4.06127 2.46633 0.103456 1.85784 10.5485 10.021 -8.11255 179.352 43.5 -4.2e-05 1e-05 -0.772269 -12.1553 -3.16895 42.3722 1.9e-05 0 76.4691 -16.3635 7.24288 17.3 -7.10543e-15 3e-06 21.4546 -1e-06 0.003093 0.103456 1.85782 -10.5485 4.66977 9.02414 177.919 43.5 -2.7e-05 4e-06 -9.31204 12.6501 1.17857 42.3723 -1.42109e-14 1e-05 84.1284 15.5709 -18.4 17.3 -6e-06 1.7e-05 21.4546 -1.9e-05 -0.003116 6.90197 -2.60373 -3e-06 7.83495 0.286307 -0.123022 12.5881 1e-05 8e-06 5.65043 0.623531 -0.273419 12.3432 -1.8e-05 -5e-06 5.32353 0.68821 -0.299137 25.8329 2.3e-05 7e-06 7.93943 -1.79932 -3.46824 11.7666 -8e-06 -6e-06 -28.7942 -10.5989 12.7607 19.7459 -1.48035 6.0001 -179.645 9.15164 -97.4715 11.2841 1.8e-05 -2e-05 27.2681 -30.5342 36.6577 33 -1.3e-05 1.9e-05 -18.6033 6.72926 -24.1143 25.2 3.2e-05 1.1e-05 -6.33402 28.3991 2.12691 19.7461 -1.48036 -6.00008 -168.984 -7.173 85.6638 11.2841 0 -1e-06 9.85576 7.22332 -13.4584 33.0001 1.6e-05 -1e-06 -16.4126 -3.78564 22.3899 25.1998 0.000123 0.000432 8.55861 -18.1349 7.04823 
59.5718 89.1364 -125.626 86.6176 -4.06822 2.46636 0.103456 1.85784 10.5485 9.98415 -8.07252 179.365 43.5 -4.2e-05 1e-05 -0.767649 -12.1552 -3.17552 42.3722 1.9e-05 -1.42109e-14 76.4236 -16.3481 7.24207 17.3 0 3e-06 21.4546 -1e-06 0.003093 0.103456 1.85782 -10.5485 4.64716 9.02068 177.919 43.5 -2.7e-05 4e-06 -9.28984 12.6551 1.17859 42.3723 0 1e-05 84.0856 15.5601 -18.417 17.3 -6e-06 1.7e-05 21.4546 -1.9e-05 -0.003116 6.90197 -2.60373 -3e-06 7.84467 0.26338 -0.123022 12.5881 1e-05 8e-06 5.67028 0.578293 -0.266782 12.3432 -1.8e-05 -5e-06 5.344 0.64372 -0.289691 25.8329 2.3e-05 7e-06 7.90789 -2.00367 -3.37145 11.7666 -8e-06 -6e-06 -28.7389 -10.8561 12.6846 19.7459 -1.48035 6.0001 -179.632 9.0797 -97.4389 11.2841 1.8e-05 -2e-05 27.3004 -30.4561 36.6669 33 -1.3e-05 1.9e-05 -18.6603 6.70804 -24.0992 25.2 3.2e-05 1.1e-05 -6.256 28.4099 2.09957 19.7461 -1.48036 -6.00008 -168.929 -7.27289 85.6751 11.2841 1.42109e-14 -1e-06 9.77549 7.19892 -13.4166 33.0001 1.6e-05 -1e-06 -16.4595 -3.73906 22.3999 25.1998 0.000123 0.000432 8.5795 -18.112 7.05922 
59.6296 89.1378 -125.625 86.6186 -4.10004 2.46184 0.103456 1.85784 10.5485 9.95445 -8.0195 179.372 43.5 -4.2e-05 1e-05 -0.751334 -12.155 -3.18926 42.3722 1.9e-05 1.42109e-14 76.3638 -16.3259 7.2615 17.3 -7.10543e-15 3e-06 21.4546 -1e-06 0.003093 0.103456 1.85782 -10.5485 4.60072 9.0034 177.927 43.5 -2.7e-05 4e-06 -9.29091 12.6354 1.1785 42.3723 -7.10543e-15 1e-05 84.0738 15.5221 -18.3478 17.3 -6e-06 1.7e-05 21.4546 -1.9e-05 -0.003116 6.90197 -2.60373 -3e-06 7.8494 0.238133 -0.123022 12.5881 1e-05 8e-06 5.68009 0.528562 -0.256252 12.3432 -1.8e-05 -5e-06 5.3545 0.594894 -0.276093 25.8329 2.3e-05 7e-06 7.89418 -2.27161 -3.2254 11.7666 -8e-06 -6e-06 -28.5882 -11.1929 12.5843 19.7459 -1.48035 6.0001 -179.659 8.96879 -97.3923 11.2841 1.8e-05 -2e-05 27.3213 -30.4144 36.6837 33 -1.3e-05 1.9e-05 -18.6856 6.72146 -24.0932 25.2 3.2e-05 1.1e-05 -6.27988 28.4172 2.09824 19.7461 -1.48036 -6.00008 -168.871 -7.39431 85.6882 11.2841 -2.84217e-14 -1e-06 9.66463 7.15026 -13.3426 33.0001 1.6e-05 -1e-06 -16.4134 -3.73086 22.3763 25.1998 0.000123 0.000432 8.56173 -18.1041 7.02563 
59.6868 89.1388 -125.623 86.6162 -4.15506 2.45395 0.103456 1.85784 10.5485 9.90662 -7.97983 179.382 43.5 -4.2e-05 1e-05 -0.830691 -12.155 -3.19344 42.3722 1.9e-05 0 76.3847 -16.3504 7.28579 17.3 7.10543e-15 3e-06 21.4546 -1e-06 0.003093 0.103456 1.85782 -10.5485 4.55119 8.96827 177.963 43.5 -2.7e-05 4e-06 -9.33008 12.6073 1.17677 42.3723 0 1e-05 84.0266 15.4925 -18.3252 17.3 -6e-06 1.7e-05 21.4546 -1.9e-05 -0.003116 6.90197 -2.60373 -3e-06 7.85186 0.220806 -0.119814 12.5881 1e-05 8e-06 5.6854 0.49455 -0.247242 12.3432 -1.8e-05 -5e-06 5.36024 0.561584 -0.264993 25.8329 2.3e-05 7e-06 7.8913 -2.51778 -3.0794 11.7666 -8e-06 -6e-06 -28.4033 -11.5199 12.5104 19.7459 -1.48035 6.0001 -179.71 8.8807 -97.3569 11.2841 1.8e-05 -2e-05 27.3777 -30.4059 36.7201 33 -1.3e-05 1.9e-05 -18.6974 6.74778 -24.0968 25.2 3.2e-05 1.1e-05 -6.29554 28.4492 2.06273 19.7461 -1.48036 -6.00008 -168.847 -7.49136 85.7321 11.2841 0 -1e-06 9.58821 7.19225 -13.3204 33.0001 1.6e-05 -1e-06 -16.3699 -3.72821 22.3703 25.1998 0.000123 0.000432 8.51215 -18.0948 7.01412 
